<?xml version="1.0" encoding="utf-8"?>
<!-- Generator: Adobe Illustrator 16.0.0, SVG Export Plug-In . SVG Version: 6.00 Build 0)  -->
<!DOCTYPE svg PUBLIC "-//W3C//DTD SVG 1.1//EN" "http://www.w3.org/Graphics/SVG/1.1/DTD/svg11.dtd">
<svg version="1.1" id="Layer_1" xmlns="http://www.w3.org/2000/svg" xmlns:xlink="http://www.w3.org/1999/xlink" x="0px" y="0px"
	 width="700px" height="700px" viewBox="0 0 700 700" enable-background="new 0 0 700 700" xml:space="preserve">
<path fill="#5C5C5C" d="M191.025,678.65c-24.611-14.297-49.787-43.496-54.363-64.351c-8.585-33.365,1.14-94.144,20.598-132.28
	c31.474-61.965,96.714-122.743,144.78-134.661c21.744-5.958,20.029,1.787-10.299,47.668c-36.051,54.82-37.767,66.138-14.307,88.186
	c18.313,16.683,20.599,17.282,56.655,13.702c97.285-10.124,231.764-116.19,281.546-221.652
	c26.897-56.606,29.757-112.024,9.16-173.396c-10.878-32.772-12.593-43.497-6.868-43.497c10.298,0,42.919,54.221,55.509,91.763
	c13.16,39.917,13.731,126.916,1.145,171.005c-39.487,138.238-165.954,279.457-308.447,344.406
	c-40.058,18.47-52.648,20.855-100.145,22.642C220.208,689.974,208.193,688.188,191.025,678.65z"/>
<path fill="#5C5C5C" d="M61.123,613.707C10.189,560.674,1.035,441.502,40.518,336.635c35.481-94.143,109.305-186.5,198.004-248.471
	c64.664-45.283,123.036-65.544,202.006-69.716c50.934-2.979,60.658-1.786,87.555,10.13c38.343,17.282,49.217,36.345,48.641,89.377
	c0,66.737-34.903,139.432-84.123,175.777c-25.175,18.469-74.963,37.538-81.255,31.579c-1.722-1.787,3.431-13.704,12.015-25.621
	c33.189-51.84,32.62-89.971-2.861-114.998c-46.351-32.771-125.326,3.573-217.457,100.102
	c-52.074,53.626-64.095,70.909-88.13,119.764C88.02,460.572,87.444,462.357,86.298,520.75c0,32.179,1.722,71.502,4.007,87.592
	C96.028,642.899,90.306,644.092,61.123,613.707z"/>
<path fill="#EC3A35" d="M191.025,678.65c-24.611-14.297-49.787-43.496-54.363-64.351c-8.585-33.365,1.14-94.144,20.598-132.28
	c31.474-61.965,96.714-122.743,144.78-134.661c21.744-5.958,20.029,1.787-10.299,47.668c-36.051,54.82-37.767,66.138-14.307,88.186
	c18.313,16.683,20.599,17.282,56.655,13.702c97.285-10.124,231.764-116.19,281.546-221.652
	c26.897-56.606,29.757-112.024,9.16-173.396c-10.878-32.772-12.593-43.497-6.868-43.497c10.298,0,42.919,54.221,55.509,91.763
	c13.16,39.917,13.731,126.916,1.145,171.005c-39.487,138.238-165.954,279.457-308.447,344.406
	c-40.058,18.47-52.648,20.855-100.145,22.642C220.208,689.974,208.193,688.188,191.025,678.65z"/>
</svg>
