<!DOCTYPE svg PUBLIC "-//W3C//DTD SVG 20010904//EN" "http://www.w3.org/TR/2001/REC-SVG-20010904/DTD/svg10.dtd">
<svg version="1.0" xmlns="http://www.w3.org/2000/svg" width="423px" height="368px" viewBox="0 0 4230 3680" preserveAspectRatio="xMidYMid meet">
<g id="layer101" fill="#9cb027" stroke="none">
 <path d="M1842 3520 c-501 -63 -946 -341 -1223 -762 -307 -468 -363 -1068 -148 -1578 224 -531 685 -908 1246 -1021 230 -46 530 -36 769 26 386 101 742 357 975 701 245 364 340 841 253 1274 -136 680 -661 1202 -1350 1340 -115 24 -405 34 -522 20z"/>
 </g>
<g id="layer102" fill="#f6f9e9" stroke="none">
 <path d="M1910 3525 c0 -3 2 -5 5 -5 3 0 5 2 5 5 0 3 -2 5 -5 5 -3 0 -5 -2 -5 -5z"/>
 <path d="M2163 3523 c4 -3 10 -3 14 0 3 4 0 7 -7 7 -7 0 -10 -3 -7 -7z"/>
 <path d="M1810 3515 c0 -3 2 -5 5 -5 3 0 5 2 5 5 0 3 -2 5 -5 5 -3 0 -5 -2 -5 -5z"/>
 <path d="M2270 3515 c0 -3 2 -5 5 -5 3 0 5 2 5 5 0 3 -2 5 -5 5 -3 0 -5 -2 -5 -5z"/>
 <path d="M1750 3505 c0 -3 2 -5 5 -5 3 0 5 2 5 5 0 3 -2 5 -5 5 -3 0 -5 -2 -5 -5z"/>
 <path d="M1650 3485 c0 -3 2 -5 5 -5 3 0 5 2 5 5 0 3 -2 5 -5 5 -3 0 -5 -2 -5 -5z"/>
 <path d="M2430 3485 c0 -3 2 -5 5 -5 3 0 5 2 5 5 0 3 -2 5 -5 5 -3 0 -5 -2 -5 -5z"/>
 <path d="M2470 3475 c0 -3 2 -5 5 -5 3 0 5 2 5 5 0 3 -2 5 -5 5 -3 0 -5 -2 -5 -5z"/>
 <path d="M1570 3465 c0 -3 2 -5 5 -5 3 0 5 2 5 5 0 3 -2 5 -5 5 -3 0 -5 -2 -5 -5z"/>
 <path d="M2660 3415 c0 -3 2 -5 5 -5 3 0 5 2 5 5 0 3 -2 5 -5 5 -3 0 -5 -2 -5 -5z"/>
 <path d="M1350 3385 c0 -3 2 -5 5 -5 3 0 5 2 5 5 0 3 -2 5 -5 5 -3 0 -5 -2 -5 -5z"/>
 <path d="M2730 3385 c0 -3 2 -5 5 -5 3 0 5 2 5 5 0 3 -2 5 -5 5 -3 0 -5 -2 -5 -5z"/>
 <path d="M2750 3375 c0 -3 2 -5 5 -5 3 0 5 2 5 5 0 3 -2 5 -5 5 -3 0 -5 -2 -5 -5z"/>
 <path d="M1210 3315 c0 -3 2 -5 5 -5 3 0 5 2 5 5 0 3 -2 5 -5 5 -3 0 -5 -2 -5 -5z"/>
 <path d="M1160 3285 c0 -3 2 -5 5 -5 3 0 5 2 5 5 0 3 -2 5 -5 5 -3 0 -5 -2 -5 -5z"/>
 <path d="M2920 3285 c0 -3 2 -5 5 -5 3 0 5 2 5 5 0 3 -2 5 -5 5 -3 0 -5 -2 -5 -5z"/>
 <path d="M3040 3205 c0 -3 2 -5 5 -5 3 0 5 2 5 5 0 3 -2 5 -5 5 -3 0 -5 -2 -5 -5z"/>
 <path d="M3080 3175 c0 -3 2 -5 5 -5 3 0 5 2 5 5 0 3 -2 5 -5 5 -3 0 -5 -2 -5 -5z"/>
 <path d="M960 3145 c0 -3 2 -5 5 -5 3 0 5 2 5 5 0 3 -2 5 -5 5 -3 0 -5 -2 -5 -5z"/>
 <path d="M3130 3135 c0 -3 2 -5 5 -5 3 0 5 2 5 5 0 3 -2 5 -5 5 -3 0 -5 -2 -5 -5z"/>
 <path d="M869 3063 c-13 -16 -12 -17 4 -4 9 7 17 15 17 17 0 8 -8 3 -21 -13z"/>
 <path d="M3245 3030 c10 -11 20 -20 23 -20 3 0 -3 9 -13 20 -10 11 -20 20 -23 20 -3 0 3 -9 13 -20z"/>
 <path d="M804 2998 l-19 -23 23 19 c21 18 27 26 19 26 -2 0 -12 -10 -23 -22z"/>
 <path d="M3280 2995 c0 -3 2 -5 5 -5 3 0 5 2 5 5 0 3 -2 5 -5 5 -3 0 -5 -2 -5 -5z"/>
 <path d="M730 2915 c0 -3 2 -5 5 -5 3 0 5 2 5 5 0 3 -2 5 -5 5 -3 0 -5 -2 -5 -5z"/>
 <path d="M3350 2915 c0 -3 2 -5 5 -5 3 0 5 2 5 5 0 3 -2 5 -5 5 -3 0 -5 -2 -5 -5z"/>
 <path d="M690 2865 c0 -3 2 -5 5 -5 3 0 5 2 5 5 0 3 -2 5 -5 5 -3 0 -5 -2 -5 -5z"/>
 <path d="M3390 2865 c0 -3 2 -5 5 -5 3 0 5 2 5 5 0 3 -2 5 -5 5 -3 0 -5 -2 -5 -5z"/>
 <path d="M3420 2825 c0 -3 2 -5 5 -5 3 0 5 2 5 5 0 3 -2 5 -5 5 -3 0 -5 -2 -5 -5z"/>
 <path d="M3480 2735 c0 -3 2 -5 5 -5 3 0 5 2 5 5 0 3 -2 5 -5 5 -3 0 -5 -2 -5 -5z"/>
 <path d="M580 2705 c0 -3 2 -5 5 -5 3 0 5 2 5 5 0 3 -2 5 -5 5 -3 0 -5 -2 -5 -5z"/>
 <path d="M530 2615 c0 -3 2 -5 5 -5 3 0 5 2 5 5 0 3 -2 5 -5 5 -3 0 -5 -2 -5 -5z"/>
 <path d="M3550 2615 c0 -3 2 -5 5 -5 3 0 5 2 5 5 0 3 -2 5 -5 5 -3 0 -5 -2 -5 -5z"/>
 <path d="M3560 2595 c0 -3 2 -5 5 -5 3 0 5 2 5 5 0 3 -2 5 -5 5 -3 0 -5 -2 -5 -5z"/>
 <path d="M3570 2575 c0 -3 2 -5 5 -5 3 0 5 2 5 5 0 3 -2 5 -5 5 -3 0 -5 -2 -5 -5z"/>
 <path d="M500 2555 c0 -3 2 -5 5 -5 3 0 5 2 5 5 0 3 -2 5 -5 5 -3 0 -5 -2 -5 -5z"/>
 <path d="M460 2465 c0 -3 2 -5 5 -5 3 0 5 2 5 5 0 3 -2 5 -5 5 -3 0 -5 -2 -5 -5z"/>
 <path d="M430 2385 c0 -3 2 -5 5 -5 3 0 5 2 5 5 0 3 -2 5 -5 5 -3 0 -5 -2 -5 -5z"/>
 <path d="M420 2355 c0 -3 2 -5 5 -5 3 0 5 2 5 5 0 3 -2 5 -5 5 -3 0 -5 -2 -5 -5z"/>
 <path d="M410 2325 c0 -3 2 -5 5 -5 3 0 5 2 5 5 0 3 -2 5 -5 5 -3 0 -5 -2 -5 -5z"/>
 <path d="M3670 2315 c0 -3 2 -5 5 -5 3 0 5 2 5 5 0 3 -2 5 -5 5 -3 0 -5 -2 -5 -5z"/>
 <path d="M390 2255 c0 -3 2 -5 5 -5 3 0 5 2 5 5 0 3 -2 5 -5 5 -3 0 -5 -2 -5 -5z"/>
 <path d="M3690 2245 c0 -3 2 -5 5 -5 3 0 5 2 5 5 0 3 -2 5 -5 5 -3 0 -5 -2 -5 -5z"/>
 <path d="M370 2165 c0 -3 2 -5 5 -5 3 0 5 2 5 5 0 3 -2 5 -5 5 -3 0 -5 -2 -5 -5z"/>
 <path d="M3710 2155 c0 -3 2 -5 5 -5 3 0 5 2 5 5 0 3 -2 5 -5 5 -3 0 -5 -2 -5 -5z"/>
 <path d="M360 2115 c0 -3 2 -5 5 -5 3 0 5 2 5 5 0 3 -2 5 -5 5 -3 0 -5 -2 -5 -5z"/>
 <path d="M918 2071 c-30 -27 -33 -35 -33 -86 0 -51 3 -59 33 -86 37 -33 100 -40 122 -14 16 19 -6 53 -24 35 -30 -30 -80 11 -80 65 0 56 50 95 82 63 8 -8 15 -8 27 2 14 12 14 15 -1 31 -27 30 -87 25 -126 -10z"/>
 <path d="M1117 2089 c-44 -25 -61 -114 -32 -169 30 -59 104 -69 157 -21 29 26 32 34 32 86 0 52 -3 60 -32 86 -34 31 -89 39 -125 18z m85 -46 c25 -23 25 -94 -1 -117 -41 -38 -89 13 -76 81 9 49 45 66 77 36z"/>
 <path d="M1320 1984 l0 -116 66 4 c55 3 70 8 86 28 22 28 18 77 -8 97 -14 10 -13 15 5 52 26 50 26 51 -4 51 -19 0 -29 -10 -45 -40 -11 -22 -27 -40 -35 -40 -11 0 -15 11 -15 40 0 36 -2 40 -25 40 l-25 0 0 -116z m104 -20 c21 -20 20 -31 -3 -44 -35 -18 -51 -12 -51 18 0 45 24 56 54 26z"/>
 <path d="M1530 1985 l0 -115 56 0 c54 0 92 12 106 34 14 20 8 63 -10 87 -18 22 -18 23 5 66 l25 43 -29 0 c-22 0 -33 -8 -51 -40 -30 -53 -52 -53 -52 0 0 36 -2 40 -25 40 l-25 0 0 -115z m106 -19 c25 -19 8 -50 -30 -54 -23 -3 -26 0 -26 26 0 45 20 54 56 28z"/>
 <path d="M1778 2086 c-27 -20 -38 -61 -38 -142 0 -72 1 -74 25 -74 29 0 27 -5 30 88 2 83 21 116 53 96 14 -9 18 -29 20 -98 3 -84 3 -86 27 -86 25 0 25 1 25 89 0 74 -3 92 -21 115 -16 21 -29 26 -62 26 -23 0 -50 -6 -59 -14z"/>
 <path d="M2007 2080 c-57 -45 -57 -145 0 -189 30 -24 90 -28 118 -7 16 12 17 16 6 29 -10 13 -16 14 -32 4 -15 -10 -25 -9 -47 3 -22 13 -28 23 -30 62 -3 39 1 49 20 62 34 24 58 21 58 -9 0 -16 -6 -25 -15 -25 -8 0 -15 -9 -15 -20 0 -17 7 -20 40 -20 l40 0 0 55 c0 43 -4 56 -19 65 -33 17 -96 12 -124 -10z"/>
 <path d="M2170 2089 c0 -6 14 -58 32 -115 31 -103 32 -104 63 -104 31 0 32 1 63 104 18 57 32 109 32 115 0 6 -10 11 -23 11 -16 0 -26 -9 -34 -30 -9 -24 -17 -30 -41 -30 -26 0 -31 5 -37 30 -5 23 -12 30 -31 30 -13 0 -24 -5 -24 -11z m109 -111 c0 -13 -4 -32 -9 -43 -7 -18 -8 -17 -15 10 -4 17 -8 36 -11 43 -2 7 5 12 16 12 14 0 20 -7 19 -22z"/>
 <path d="M2390 1985 l0 -117 60 4 c49 4 66 9 88 31 23 23 27 36 27 82 0 46 -4 59 -27 82 -22 22 -39 27 -88 31 l-60 4 0 -117z m100 57 c31 -25 32 -88 1 -113 -42 -34 -51 -26 -51 49 0 87 8 98 50 64z"/>
 <path d="M2647 2089 c-44 -25 -61 -114 -32 -169 19 -37 43 -50 93 -50 92 0 131 132 61 206 -24 26 -88 33 -122 13z m85 -46 c25 -23 25 -94 -1 -117 -41 -38 -89 13 -76 81 9 49 45 66 77 36z"/>
 <path d="M2855 2086 c-26 -19 -13 -51 18 -41 76 24 99 -7 29 -40 -47 -22 -62 -39 -62 -71 0 -51 89 -84 135 -50 16 12 17 16 6 30 -10 11 -18 13 -31 6 -27 -14 -47 -12 -54 5 -4 11 6 21 32 32 55 25 72 43 72 75 0 42 -32 68 -83 68 -24 0 -52 -6 -62 -14z"/>
 <path d="M3720 2095 c0 -3 2 -5 5 -5 3 0 5 2 5 5 0 3 -2 5 -5 5 -3 0 -5 -2 -5 -5z"/>
 <path d="M350 2045 c0 -3 2 -5 5 -5 3 0 5 2 5 5 0 3 -2 5 -5 5 -3 0 -5 -2 -5 -5z"/>
 <path d="M3730 2025 c0 -3 2 -5 5 -5 3 0 5 2 5 5 0 3 -2 5 -5 5 -3 0 -5 -2 -5 -5z"/>
 <path d="M3045 1925 c-19 -18 -25 -35 -25 -70 0 -35 6 -52 25 -70 18 -19 35 -25 70 -25 63 0 95 31 95 93 0 62 -35 97 -97 97 -33 0 -50 -6 -68 -25z m113 -11 c17 -12 22 -25 22 -59 0 -34 -5 -47 -22 -59 -51 -36 -112 -4 -112 59 0 63 61 95 112 59z"/>
 <path d="M3070 1855 c0 -51 15 -64 59 -49 22 8 26 15 26 52 0 43 -11 52 -34 30 -11 -10 -14 -10 -18 0 -3 6 -11 12 -19 12 -10 0 -14 -13 -14 -45z m60 -15 c0 -5 -7 -10 -15 -10 -8 0 -15 5 -15 10 0 6 7 10 15 10 8 0 15 -4 15 -10z"/>
 <path d="M340 1930 c0 -7 3 -10 7 -7 3 4 3 10 0 14 -4 3 -7 0 -7 -7z"/>
 <path d="M3742 1890 c0 -14 2 -19 5 -12 2 6 2 18 0 25 -3 6 -5 1 -5 -13z"/>
 <path d="M940 1701 l0 -90 -32 -3 c-25 -2 -33 -8 -33 -23 0 -18 8 -20 88 -23 l87 -3 0 26 c0 21 -5 25 -30 25 l-30 0 0 90 c0 89 0 90 -25 90 -25 0 -25 -1 -25 -89z"/>
 <path d="M1084 1777 c-2 -7 -3 -58 -2 -113 l3 -99 73 -3 c72 -3 73 -2 70 20 -2 19 -10 23 -45 26 -35 3 -43 7 -43 23 0 15 7 19 35 19 28 0 35 4 35 20 0 16 -7 20 -35 20 -32 0 -35 2 -35 30 0 29 2 30 45 30 38 0 45 3 45 20 0 18 -7 20 -70 20 -49 0 -72 -4 -76 -13z"/>
 <path d="M1307 1770 c-82 -64 -39 -211 62 -210 49 1 73 19 56 44 -11 14 -17 15 -34 6 -40 -21 -71 11 -71 74 0 47 31 74 70 59 24 -9 32 -8 42 4 32 39 -78 59 -125 23z"/>
 <path d="M1475 1777 c-3 -7 -4 -58 -3 -113 l3 -99 27 -3 c25 -3 31 4 67 75 l40 78 -2 -75 c-2 -71 -1 -75 21 -78 22 -3 22 -2 22 112 l0 116 -25 0 c-21 0 -31 -12 -64 -77 l-40 -78 2 75 c2 71 1 75 -21 78 -12 2 -24 -3 -27 -11z"/>
 <path d="M1726 1759 c-21 -25 -26 -41 -26 -86 0 -47 4 -59 29 -84 49 -48 125 -38 156 21 29 56 11 145 -34 170 -11 5 -38 10 -59 10 -33 0 -45 -6 -66 -31z m112 -42 c31 -65 -13 -136 -64 -102 -19 12 -24 24 -24 57 0 74 60 105 88 45z"/>
 <path d="M1940 1674 l0 -116 69 4 c84 4 101 17 101 73 0 51 -16 67 -73 74 -40 6 -42 8 -45 44 -3 32 -7 37 -28 37 l-24 0 0 -116z m118 -35 c2 -21 -2 -28 -23 -33 -35 -9 -45 -1 -45 35 0 28 2 30 33 27 26 -2 33 -8 35 -29z"/>
 <path d="M2110 1783 c0 -5 15 -55 33 -113 32 -102 34 -105 64 -108 l31 -3 31 100 c17 55 34 107 37 116 5 11 -1 15 -24 15 -24 0 -31 -5 -34 -22 -2 -19 -10 -24 -40 -26 -33 -3 -38 0 -44 22 -4 19 -13 26 -30 26 -13 0 -24 -3 -24 -7z m116 -113 c-3 -11 -9 -30 -13 -42 l-7 -23 -7 25 c-13 45 -10 60 12 60 16 0 19 -5 15 -20z"/>
 <path d="M2364 1775 c-55 -38 -57 -140 -4 -187 34 -31 84 -37 115 -14 16 12 17 16 6 30 -10 12 -18 13 -32 5 -41 -22 -85 30 -74 88 7 41 45 64 75 45 14 -9 21 -8 30 3 32 38 -69 64 -116 30z"/>
 <path d="M2530 1675 l0 -115 25 0 c23 0 25 4 25 40 0 22 4 40 9 40 4 0 20 -18 35 -40 19 -29 33 -40 51 -40 32 0 31 6 -5 54 l-30 39 27 46 c14 25 33 56 41 69 14 21 13 22 -14 22 -24 0 -34 -9 -58 -47 -26 -45 -29 -46 -42 -28 -8 10 -14 31 -14 47 0 23 -4 28 -25 28 l-25 0 0 -115z"/>
 <path d="M3742 1770 c0 -14 2 -19 5 -12 2 6 2 18 0 25 -3 6 -5 1 -5 -13z"/>
 <path d="M340 1730 c0 -7 3 -10 7 -7 3 4 3 10 0 14 -4 3 -7 0 -7 -7z"/>
 <path d="M3730 1635 c0 -3 2 -5 5 -5 3 0 5 2 5 5 0 3 -2 5 -5 5 -3 0 -5 -2 -5 -5z"/>
 <path d="M350 1615 c0 -3 2 -5 5 -5 3 0 5 2 5 5 0 3 -2 5 -5 5 -3 0 -5 -2 -5 -5z"/>
 <path d="M360 1545 c0 -3 2 -5 5 -5 3 0 5 2 5 5 0 3 -2 5 -5 5 -3 0 -5 -2 -5 -5z"/>
 <path d="M3710 1505 c0 -3 2 -5 5 -5 3 0 5 2 5 5 0 3 -2 5 -5 5 -3 0 -5 -2 -5 -5z"/>
 <path d="M3700 1455 c0 -3 2 -5 5 -5 3 0 5 2 5 5 0 3 -2 5 -5 5 -3 0 -5 -2 -5 -5z"/>
 <path d="M380 1445 c0 -3 2 -5 5 -5 3 0 5 2 5 5 0 3 -2 5 -5 5 -3 0 -5 -2 -5 -5z"/>
 <path d="M390 1405 c0 -3 2 -5 5 -5 3 0 5 2 5 5 0 3 -2 5 -5 5 -3 0 -5 -2 -5 -5z"/>
 <path d="M3680 1375 c0 -3 2 -5 5 -5 3 0 5 2 5 5 0 3 -2 5 -5 5 -3 0 -5 -2 -5 -5z"/>
 <path d="M400 1365 c0 -3 2 -5 5 -5 3 0 5 2 5 5 0 3 -2 5 -5 5 -3 0 -5 -2 -5 -5z"/>
 <path d="M430 1275 c0 -3 2 -5 5 -5 3 0 5 2 5 5 0 3 -2 5 -5 5 -3 0 -5 -2 -5 -5z"/>
 <path d="M440 1245 c0 -3 2 -5 5 -5 3 0 5 2 5 5 0 3 -2 5 -5 5 -3 0 -5 -2 -5 -5z"/>
 <path d="M460 1195 c0 -3 2 -5 5 -5 3 0 5 2 5 5 0 3 -2 5 -5 5 -3 0 -5 -2 -5 -5z"/>
 <path d="M3620 1195 c0 -3 2 -5 5 -5 3 0 5 2 5 5 0 3 -2 5 -5 5 -3 0 -5 -2 -5 -5z"/>
 <path d="M3580 1105 c0 -3 2 -5 5 -5 3 0 5 2 5 5 0 3 -2 5 -5 5 -3 0 -5 -2 -5 -5z"/>
 <path d="M3570 1085 c0 -3 2 -5 5 -5 3 0 5 2 5 5 0 3 -2 5 -5 5 -3 0 -5 -2 -5 -5z"/>
 <path d="M3560 1065 c0 -3 2 -5 5 -5 3 0 5 2 5 5 0 3 -2 5 -5 5 -3 0 -5 -2 -5 -5z"/>
 <path d="M3550 1045 c0 -3 2 -5 5 -5 3 0 5 2 5 5 0 3 -2 5 -5 5 -3 0 -5 -2 -5 -5z"/>
 <path d="M540 1025 c0 -3 2 -5 5 -5 3 0 5 2 5 5 0 3 -2 5 -5 5 -3 0 -5 -2 -5 -5z"/>
 <path d="M580 955 c0 -3 2 -5 5 -5 3 0 5 2 5 5 0 3 -2 5 -5 5 -3 0 -5 -2 -5 -5z"/>
 <path d="M3500 955 c0 -3 2 -5 5 -5 3 0 5 2 5 5 0 3 -2 5 -5 5 -3 0 -5 -2 -5 -5z"/>
 <path d="M610 905 c0 -3 2 -5 5 -5 3 0 5 2 5 5 0 3 -2 5 -5 5 -3 0 -5 -2 -5 -5z"/>
 <path d="M3420 835 c0 -3 2 -5 5 -5 3 0 5 2 5 5 0 3 -2 5 -5 5 -3 0 -5 -2 -5 -5z"/>
 <path d="M3390 795 c0 -3 2 -5 5 -5 3 0 5 2 5 5 0 3 -2 5 -5 5 -3 0 -5 -2 -5 -5z"/>
 <path d="M3350 745 c0 -3 2 -5 5 -5 3 0 5 2 5 5 0 3 -2 5 -5 5 -3 0 -5 -2 -5 -5z"/>
 <path d="M810 655 c13 -14 26 -25 28 -25 3 0 -5 11 -18 25 -13 14 -26 25 -28 25 -3 0 5 -11 18 -25z"/>
 <path d="M3269 653 l-24 -28 28 24 c25 23 32 31 24 31 -2 0 -14 -12 -28 -27z"/>
 <path d="M890 575 c0 -3 2 -5 5 -5 3 0 5 2 5 5 0 3 -2 5 -5 5 -3 0 -5 -2 -5 -5z"/>
 <path d="M3080 485 c0 -3 2 -5 5 -5 3 0 5 2 5 5 0 3 -2 5 -5 5 -3 0 -5 -2 -5 -5z"/>
 <path d="M3000 425 c0 -3 2 -5 5 -5 3 0 5 2 5 5 0 3 -2 5 -5 5 -3 0 -5 -2 -5 -5z"/>
 <path d="M1110 405 c0 -3 2 -5 5 -5 3 0 5 2 5 5 0 3 -2 5 -5 5 -3 0 -5 -2 -5 -5z"/>
 <path d="M2970 405 c0 -3 2 -5 5 -5 3 0 5 2 5 5 0 3 -2 5 -5 5 -3 0 -5 -2 -5 -5z"/>
 <path d="M1140 385 c0 -3 2 -5 5 -5 3 0 5 2 5 5 0 3 -2 5 -5 5 -3 0 -5 -2 -5 -5z"/>
 <path d="M1190 355 c0 -3 2 -5 5 -5 3 0 5 2 5 5 0 3 -2 5 -5 5 -3 0 -5 -2 -5 -5z"/>
 <path d="M2890 355 c0 -3 2 -5 5 -5 3 0 5 2 5 5 0 3 -2 5 -5 5 -3 0 -5 -2 -5 -5z"/>
 <path d="M2870 345 c0 -3 2 -5 5 -5 3 0 5 2 5 5 0 3 -2 5 -5 5 -3 0 -5 -2 -5 -5z"/>
 <path d="M2730 275 c0 -3 2 -5 5 -5 3 0 5 2 5 5 0 3 -2 5 -5 5 -3 0 -5 -2 -5 -5z"/>
 <path d="M2710 265 c0 -3 2 -5 5 -5 3 0 5 2 5 5 0 3 -2 5 -5 5 -3 0 -5 -2 -5 -5z"/>
 <path d="M1470 225 c0 -3 2 -5 5 -5 3 0 5 2 5 5 0 3 -2 5 -5 5 -3 0 -5 -2 -5 -5z"/>
 <path d="M2610 225 c0 -3 2 -5 5 -5 3 0 5 2 5 5 0 3 -2 5 -5 5 -3 0 -5 -2 -5 -5z"/>
 <path d="M1500 215 c0 -3 2 -5 5 -5 3 0 5 2 5 5 0 3 -2 5 -5 5 -3 0 -5 -2 -5 -5z"/>
 <path d="M2580 215 c0 -3 2 -5 5 -5 3 0 5 2 5 5 0 3 -2 5 -5 5 -3 0 -5 -2 -5 -5z"/>
 <path d="M2550 205 c0 -3 2 -5 5 -5 3 0 5 2 5 5 0 3 -2 5 -5 5 -3 0 -5 -2 -5 -5z"/>
 <path d="M2480 185 c0 -3 2 -5 5 -5 3 0 5 2 5 5 0 3 -2 5 -5 5 -3 0 -5 -2 -5 -5z"/>
 <path d="M2440 175 c0 -3 2 -5 5 -5 3 0 5 2 5 5 0 3 -2 5 -5 5 -3 0 -5 -2 -5 -5z"/>
 <path d="M1883 133 c4 -3 10 -3 14 0 3 4 0 7 -7 7 -7 0 -10 -3 -7 -7z"/>
 <path d="M2193 133 c4 -3 10 -3 14 0 3 4 0 7 -7 7 -7 0 -10 -3 -7 -7z"/>
 </g>

</svg>