<!DOCTYPE svg PUBLIC "-//W3C//DTD SVG 20010904//EN" "http://www.w3.org/TR/2001/REC-SVG-20010904/DTD/svg10.dtd">
<svg version="1.0" xmlns="http://www.w3.org/2000/svg" width="500px" height="500px" viewBox="0 0 5000 5000" preserveAspectRatio="xMidYMid meet">
<g id="layer101" fill="#c90203" stroke="none">
 <path d="M430 2505 l0 -715 2075 0 2075 0 0 715 0 715 -2075 0 -2075 0 0 -715z"/>
 </g>
<g id="layer102" fill="#fdf0ef" stroke="none">
 <path d="M992 2958 c3 -7 22 -64 43 -125 l37 -113 64 0 c36 0 64 4 64 10 0 6 -22 10 -48 10 l-48 0 -16 50 -16 50 45 0 c27 0 42 4 38 10 -3 6 -26 10 -50 10 -39 0 -44 3 -54 31 -18 53 -15 59 34 59 25 0 45 5 45 10 0 6 -30 10 -71 10 -53 0 -70 -3 -67 -12z"/>
 <path d="M1187 2952 c-21 -23 -21 -31 -1 -82 20 -50 70 -83 121 -78 35 3 37 1 51 -40 9 -29 19 -42 32 -42 17 0 14 12 -24 128 l-43 127 -60 3 c-47 2 -63 -2 -76 -16z m84 -12 c38 -21 65 -109 38 -125 -19 -12 -67 17 -83 50 -19 40 -20 57 -4 73 15 15 24 15 49 2z"/>
 <path d="M1390 2955 c-9 -11 -7 -30 11 -90 18 -60 26 -75 42 -75 11 0 17 5 14 13 -29 76 -40 128 -29 139 10 10 18 9 40 -2 20 -11 33 -34 51 -83 17 -49 28 -67 41 -67 17 0 16 7 -11 89 l-30 89 -59 1 c-39 0 -62 -4 -70 -14z"/>
 <path d="M1592 2958 c-7 -7 -12 -29 -12 -50 0 -29 8 -45 38 -78 35 -36 44 -40 85 -40 36 0 47 4 47 16 0 12 -7 14 -29 9 -37 -8 -67 7 -91 48 -24 39 -25 51 -4 72 11 11 25 14 45 10 30 -7 41 8 13 19 -26 10 -79 7 -92 -6z"/>
 <path d="M1737 2963 c-14 -14 -6 -50 16 -71 12 -11 42 -24 65 -28 45 -7 63 -27 43 -47 -8 -8 -20 -6 -46 6 -19 9 -35 13 -35 7 0 -17 44 -40 78 -40 48 0 55 28 27 110 l-22 65 -60 3 c-33 1 -62 -1 -66 -5z m87 -34 c34 -26 33 -39 -2 -39 -32 0 -52 16 -52 42 0 24 21 23 54 -3z"/>
 <path d="M1937 2963 c-12 -12 -7 -52 12 -103 15 -41 16 -50 5 -50 -8 0 -14 -4 -14 -10 0 -5 8 -10 18 -10 9 0 22 -10 27 -22 6 -13 18 -24 28 -26 14 -3 16 0 7 22 -8 23 -7 26 10 26 11 0 20 5 20 10 0 6 -11 10 -24 10 -20 0 -26 9 -41 58 -10 31 -20 61 -22 65 -3 5 4 11 16 14 12 3 21 9 21 14 0 10 -53 12 -63 2z"/>
 <path d="M2030 2963 c0 -4 12 -43 26 -86 23 -69 45 -100 59 -85 3 2 -8 42 -23 89 -19 55 -34 85 -45 87 -10 2 -17 0 -17 -5z"/>
 <path d="M2137 2952 c-10 -10 -17 -27 -17 -36 0 -33 33 -88 64 -107 38 -23 99 -25 116 -4 30 37 -5 130 -58 154 -36 17 -87 13 -105 -7z m88 -8 c17 -7 55 -74 55 -97 0 -24 -28 -40 -55 -33 -28 7 -65 59 -65 92 0 36 28 52 65 38z"/>
 <path d="M2320 2964 c0 -4 12 -45 27 -90 l26 -82 51 0 c96 -1 101 9 65 116 -15 46 -26 62 -39 62 -18 0 -18 -2 1 -57 23 -68 24 -92 3 -100 -24 -9 -61 35 -82 97 -11 33 -26 56 -35 58 -10 2 -17 0 -17 -4z"/>
 <path d="M2522 2958 c-32 -32 13 -83 82 -93 41 -6 46 -10 46 -32 0 -26 -12 -27 -64 -7 -25 10 -19 -11 7 -25 34 -18 91 -11 95 12 2 10 -6 49 -17 86 l-21 69 -58 1 c-33 0 -64 -5 -70 -11z m86 -24 c30 -20 28 -44 -2 -44 -35 0 -68 35 -49 53 10 11 27 8 51 -9z"/>
 <path d="M2693 2963 c2 -5 21 -61 43 -127 34 -106 54 -140 71 -123 3 3 -14 62 -38 131 -34 102 -46 126 -61 126 -11 0 -17 -3 -15 -7z"/>
 <path d="M2881 2961 c-8 -5 -11 -16 -8 -25 6 -14 9 -14 36 2 28 15 33 16 58 2 43 -24 41 -48 -7 -89 -37 -32 -41 -39 -35 -64 10 -37 59 -67 111 -67 45 0 55 5 47 25 -4 11 -10 11 -28 3 -18 -8 -32 -8 -54 2 -46 19 -46 38 -1 80 50 46 52 78 9 114 -32 27 -98 36 -128 17z"/>
 <path d="M3082 2958 c-29 -29 -5 -108 44 -147 36 -29 99 -29 114 0 7 11 9 32 6 45 -6 22 -11 24 -71 24 l-65 0 0 29 c0 35 24 47 64 32 16 -7 26 -7 26 -1 0 27 -95 41 -118 18z m128 -118 c0 -28 -25 -35 -55 -16 -36 24 -31 36 15 36 34 0 40 -3 40 -20z"/>
 <path d="M3246 2943 c4 -15 13 -38 20 -52 8 -14 14 -31 14 -38 0 -7 5 -23 11 -36 10 -23 17 -25 80 -26 l68 -1 3 63 3 62 44 -62 c29 -41 51 -63 64 -63 14 0 17 3 10 13 -6 6 -36 47 -67 90 -37 51 -63 77 -76 77 -18 0 -20 -7 -20 -80 0 -74 -2 -80 -20 -80 -33 0 -67 43 -85 104 -13 43 -21 56 -36 56 -16 0 -18 -5 -13 -27z"/>
 <path d="M3547 2923 c36 -113 46 -133 64 -133 16 0 15 8 -14 90 -23 65 -37 90 -49 90 -16 0 -16 -4 -1 -47z"/>
 <path d="M3648 2959 c-37 -21 -15 -107 38 -148 33 -26 114 -30 114 -6 0 13 -7 15 -33 10 -27 -5 -40 -2 -61 17 -59 52 -49 127 16 112 23 -5 29 -3 26 7 -6 17 -76 23 -100 8z"/>
 <path d="M3802 2958 c-7 -7 -12 -30 -12 -51 0 -54 61 -117 111 -117 48 0 61 12 57 51 l-3 34 -62 3 c-66 3 -82 17 -63 53 12 21 27 24 64 9 16 -6 26 -6 26 0 0 27 -95 41 -118 18z m121 -112 c6 -15 -11 -36 -28 -36 -6 0 -22 11 -35 25 l-23 25 40 0 c26 0 43 -5 46 -14z"/>
 <path d="M3963 2955 c-8 -22 4 -30 22 -15 20 17 65 5 65 -18 0 -9 -14 -25 -30 -34 -17 -9 -30 -24 -30 -33 0 -23 45 -65 70 -65 27 0 26 13 -2 25 -32 14 -34 39 -3 53 33 15 35 64 3 86 -29 21 -87 21 -95 1z"/>
 <path d="M2104 2734 c3 -9 6 -18 6 -20 0 -2 9 -4 21 -4 15 0 19 4 15 16 -3 9 -6 18 -6 20 0 2 -9 4 -21 4 -15 0 -19 -4 -15 -16z"/>
 <path d="M3612 2734 c2 -11 11 -20 22 -22 13 -3 17 1 14 14 -2 11 -11 20 -22 22 -13 3 -17 -1 -14 -14z"/>
 <path d="M1535 2533 c-205 -107 -139 -403 90 -403 191 0 287 233 149 362 -60 56 -174 76 -239 41z m129 -83 c59 -22 84 -116 47 -176 -61 -101 -200 -43 -188 79 7 82 69 125 141 97z"/>
 <path d="M2975 2538 c-33 -18 -86 -71 -103 -103 -24 -45 -20 -149 6 -202 45 -88 147 -126 237 -89 26 11 42 13 49 6 5 -5 32 -10 58 -10 l48 0 0 200 0 200 -48 0 c-26 0 -53 -5 -59 -11 -8 -8 -19 -6 -41 5 -35 18 -117 21 -147 4z m135 -93 c83 -43 77 -179 -9 -215 -70 -29 -136 24 -136 108 0 92 72 145 145 107z"/>
 <path d="M3465 2536 c-37 -16 -70 -52 -84 -89 -6 -16 -11 -91 -11 -168 l0 -139 49 0 48 0 5 133 c3 72 9 140 13 150 17 41 95 44 116 5 6 -11 13 -80 16 -154 l6 -134 49 0 50 0 -4 154 c-3 171 -8 186 -78 234 -38 26 -126 30 -175 8z"/>
 <path d="M3837 2529 c-51 -27 -56 -45 -21 -80 l29 -29 42 21 c90 44 116 -15 28 -63 -103 -55 -137 -122 -98 -189 42 -72 176 -79 235 -12 17 19 16 21 -16 52 l-34 33 -30 -22 c-32 -24 -62 -21 -62 5 0 8 15 24 33 34 88 52 107 67 120 94 17 34 12 91 -10 125 -33 52 -146 68 -216 31z"/>
 <path d="M980 2270 l0 -270 55 0 54 0 3 85 3 86 52 -68 c29 -37 59 -76 66 -86 10 -15 24 -17 80 -15 l67 3 -67 85 c-38 47 -80 101 -95 120 l-26 36 104 147 104 148 -67 -3 -67 -3 -76 -107 -75 -107 -3 110 -3 109 -54 0 -55 0 0 -270z"/>
 <path d="M1910 2340 l0 -200 55 0 c40 0 55 4 55 14 0 11 8 10 37 -5 74 -38 164 -15 198 50 12 23 15 65 15 186 l0 155 -49 0 -48 0 -6 -134 c-3 -74 -10 -143 -16 -155 -14 -26 -53 -36 -81 -21 -37 20 -50 69 -50 195 l0 115 -55 0 -55 0 0 -200z"/>
 <path d="M2370 2270 l0 -270 55 0 55 0 0 84 c0 46 3 91 6 100 5 13 23 16 90 16 l84 0 0 -100 0 -100 55 0 55 0 0 270 0 270 -55 0 -55 0 0 -120 0 -120 -84 0 c-67 0 -85 3 -90 16 -3 9 -6 63 -6 120 l0 104 -55 0 -55 0 0 -270z"/>
 <path d="M4090 2075 c0 -42 -3 -55 -15 -55 -8 0 -15 -4 -15 -10 0 -6 34 -10 85 -9 l84 1 7 34 c8 43 21 44 32 2 6 -26 14 -34 35 -36 27 -3 27 -3 27 62 0 59 -2 66 -20 66 -15 0 -20 -7 -21 -27 l-1 -28 -11 28 c-6 15 -18 27 -27 27 -9 0 -21 -12 -27 -27 l-11 -28 -1 28 c-1 17 -7 27 -16 27 -11 0 -15 -11 -15 -39 0 -52 -8 -71 -31 -71 -16 0 -19 8 -19 55 0 48 -2 55 -20 55 -18 0 -20 -7 -20 -55z"/>
 </g>

</svg>