<!DOCTYPE svg PUBLIC "-//W3C//DTD SVG 20010904//EN" "http://www.w3.org/TR/2001/REC-SVG-20010904/DTD/svg10.dtd">
<svg version="1.0" xmlns="http://www.w3.org/2000/svg" width="221px" height="104px" viewBox="0 0 2210 1040" preserveAspectRatio="xMidYMid meet">
<g id="layer101" fill="#58585a" stroke="none">
 <path d="M770 955 c-20 -24 3 -43 25 -21 18 18 25 19 49 10 29 -11 17 -33 -31 -56 -52 -25 -66 -54 -38 -82 23 -22 78 -21 99 3 23 25 4 38 -26 17 -15 -11 -26 -12 -40 -5 -24 13 -10 34 30 44 15 4 33 11 39 17 16 13 17 60 1 76 -17 17 -93 15 -108 -3z"/>
 <path d="M926 948 c-23 -32 -20 -100 5 -132 41 -52 129 -19 129 50 0 23 -4 24 -60 24 -33 0 -60 3 -60 8 0 4 7 18 16 30 19 27 48 28 66 3 10 -14 18 -17 28 -11 12 7 11 12 -4 29 -27 30 -99 29 -120 -1z m95 -107 c-19 -34 -53 -34 -71 0 -10 17 -7 19 35 19 42 0 45 -2 36 -19z"/>
 <path d="M1090 881 l0 -88 62 1 61 1 22 64 21 64 19 -63 c17 -55 37 -82 50 -68 5 5 -40 145 -54 167 -17 27 -37 3 -60 -72 -25 -79 -33 -84 -73 -49 -13 11 -18 30 -18 74 0 45 -3 58 -15 58 -12 0 -15 -17 -15 -89z"/>
 <path d="M1350 880 c0 -73 3 -90 15 -90 12 0 15 17 15 90 0 73 -3 90 -15 90 -12 0 -15 -17 -15 -90z"/>
 <path d="M1436 954 c-33 -33 -33 -109 1 -146 24 -27 87 -24 107 4 30 42 9 54 -30 17 -18 -17 -26 -19 -43 -10 -42 23 -39 103 4 123 21 10 29 8 49 -11 29 -27 47 -10 20 20 -21 24 -86 26 -108 3z"/>
 <path d="M1596 948 c-28 -39 -17 -127 18 -150 21 -14 73 -8 89 10 9 10 20 33 23 50 l7 32 -62 0 c-66 0 -77 12 -43 43 25 22 48 21 64 -2 10 -14 18 -17 28 -11 12 7 11 12 -4 29 -27 30 -99 29 -120 -1z m94 -103 c0 -25 -34 -36 -58 -19 -33 23 -27 34 18 34 28 0 40 -4 40 -15z"/>
 <path d="M1755 954 c-24 -24 -2 -43 23 -21 22 20 46 22 60 4 16 -19 2 -34 -43 -49 -33 -11 -41 -18 -43 -41 -5 -38 13 -57 52 -57 41 0 76 24 60 40 -9 9 -18 8 -36 -4 -14 -9 -28 -12 -37 -7 -23 14 -6 36 38 49 45 14 61 45 41 81 -14 27 -90 30 -115 5z"/>
 <path d="M1350 745 c0 -8 7 -15 15 -15 8 0 15 7 15 15 0 8 -7 15 -15 15 -8 0 -15 -7 -15 -15z"/>
 <path d="M325 721 c-45 -19 -60 -49 -60 -121 0 -104 45 -152 129 -136 44 8 76 52 76 104 l0 32 -86 0 -86 0 7 28 c15 63 75 84 120 42 14 -13 31 -20 40 -16 14 5 14 8 0 29 -27 41 -90 58 -140 38z m105 -166 c0 -24 -48 -68 -66 -61 -9 3 -20 6 -25 6 -8 0 -39 51 -39 65 0 3 29 5 65 5 52 0 65 -3 65 -15z"/>
 <path d="M543 724 c-9 -4 -13 -37 -13 -115 0 -102 -1 -109 -20 -109 -11 0 -20 -7 -20 -15 0 -8 9 -15 20 -15 17 0 20 -7 20 -45 0 -33 4 -45 15 -45 11 0 15 12 15 45 0 43 1 45 30 45 20 0 30 5 30 15 0 10 -10 15 -30 15 l-30 0 0 79 c0 96 5 111 37 111 18 0 24 5 21 18 -3 17 -49 27 -75 16z"/>
 <path d="M813 711 c-70 -44 -70 -188 0 -232 45 -28 113 -21 144 16 30 34 29 41 -7 53 -26 9 -31 8 -40 -9 -24 -44 -80 -5 -80 56 0 63 53 98 83 55 13 -18 18 -19 41 -9 32 15 33 29 2 58 -35 33 -101 38 -143 12z"/>
 <path d="M1204 721 c-44 -19 -64 -59 -64 -128 0 -61 2 -67 34 -99 48 -48 104 -48 152 0 32 32 34 38 34 100 0 58 -3 69 -27 96 -30 34 -89 48 -129 31z m76 -71 c17 -31 8 -111 -12 -124 -30 -19 -53 4 -56 57 -4 54 11 87 38 87 11 0 24 -9 30 -20z"/>
 <path d="M1440 723 c-33 -12 -40 -36 -40 -145 l0 -108 35 0 35 0 0 95 c0 103 8 118 49 95 19 -10 21 -20 21 -100 l0 -90 35 0 35 0 0 125 0 125 -30 0 c-16 0 -30 -4 -30 -9 0 -6 -12 -3 -27 5 -29 14 -56 17 -83 7z"/>
 <path d="M1689 702 c-33 -29 -34 -33 -34 -107 0 -74 1 -78 33 -106 33 -30 69 -37 103 -19 18 10 19 7 19 -45 l0 -55 35 0 35 0 0 175 0 176 -42 -1 c-24 0 -59 2 -79 6 -31 5 -41 2 -70 -24z m109 -44 c16 -16 16 -110 0 -126 -32 -32 -78 3 -78 61 0 61 45 98 78 65z"/>
 <path d="M20 595 c0 -101 3 -125 14 -125 8 0 16 5 18 12 3 8 11 7 28 -5 33 -23 85 -22 110 3 18 18 20 33 20 130 0 103 -1 110 -20 110 -19 0 -20 -7 -20 -105 0 -94 -2 -105 -20 -115 -14 -8 -26 -7 -42 1 -54 28 -58 37 -58 131 0 72 -3 88 -15 88 -13 0 -15 -21 -15 -125z"/>
 <path d="M1030 545 l0 -175 35 0 35 0 0 175 0 175 -35 0 -35 0 0 -175z"/>
 <path d="M642 638 c-27 -27 -6 -68 35 -68 29 0 48 33 33 60 -12 22 -49 27 -68 8z"/>
 <path d="M942 341 c-26 -16 -8 -54 43 -93 65 -50 249 -141 349 -173 44 -14 102 -25 132 -25 50 0 54 2 54 24 0 16 -14 37 -42 61 l-43 36 63 -31 c161 -79 352 -117 352 -71 0 88 -492 318 -580 271 -29 -16 -25 -29 26 -77 l45 -44 -61 31 c-120 60 -308 111 -338 91z m418 -126 c0 -3 -2 -5 -5 -5 -3 0 -5 2 -5 5 0 3 2 5 5 5 3 0 5 -2 5 -5z m50 -30 c0 -3 -2 -5 -5 -5 -3 0 -5 2 -5 5 0 3 2 5 5 5 3 0 5 -2 5 -5z m20 -10 c0 -3 -2 -5 -5 -5 -3 0 -5 2 -5 5 0 3 2 5 5 5 3 0 5 -2 5 -5z"/>
 <path d="M1621 341 c-9 -6 -11 -18 -7 -34 19 -77 392 -257 532 -257 51 0 54 1 54 25 0 84 -503 315 -579 266z"/>
 </g>
<g id="layer102" fill="#00aeef" stroke="none">
 <path d="M642 638 c-27 -27 -6 -68 35 -68 29 0 48 33 33 60 -12 22 -49 27 -68 8z"/>
 <path d="M942 341 c-26 -16 -8 -54 43 -93 65 -50 249 -141 349 -173 44 -14 102 -25 132 -25 50 0 54 2 54 24 0 16 -14 37 -42 61 l-43 36 63 -31 c161 -79 352 -117 352 -71 0 88 -492 318 -580 271 -29 -16 -25 -29 26 -77 l45 -44 -61 31 c-120 60 -308 111 -338 91z m418 -126 c0 -3 -2 -5 -5 -5 -3 0 -5 2 -5 5 0 3 2 5 5 5 3 0 5 -2 5 -5z m50 -30 c0 -3 -2 -5 -5 -5 -3 0 -5 2 -5 5 0 3 2 5 5 5 3 0 5 -2 5 -5z m20 -10 c0 -3 -2 -5 -5 -5 -3 0 -5 2 -5 5 0 3 2 5 5 5 3 0 5 -2 5 -5z"/>
 <path d="M1621 341 c-9 -6 -11 -18 -7 -34 19 -77 392 -257 532 -257 51 0 54 1 54 25 0 84 -503 315 -579 266z"/>
 </g>

</svg>