<!DOCTYPE svg PUBLIC "-//W3C//DTD SVG 20010904//EN" "http://www.w3.org/TR/2001/REC-SVG-20010904/DTD/svg10.dtd">
<svg version="1.0" xmlns="http://www.w3.org/2000/svg" width="174px" height="168px" viewBox="0 0 1740 1680" preserveAspectRatio="xMidYMid meet">
<g id="layer101" fill="#e4e4e4" stroke="none">
 <path d="M784 1247 c77 -59 76 -50 13 -91 -44 -28 -68 -36 -102 -36 -48 0 -55 -6 -29 -24 13 -10 -2 -23 -95 -80 -61 -38 -111 -73 -111 -77 0 -13 7 -11 50 16 61 39 63 38 61 -35 -2 -50 -9 -77 -32 -119 -16 -30 -26 -57 -23 -60 4 -3 11 2 18 12 35 58 35 57 36 -105 0 -99 4 -158 10 -158 6 0 10 29 10 66 0 36 3 64 8 62 48 -21 112 -75 132 -110 22 -37 25 -40 28 -20 2 12 5 22 7 22 3 0 52 -30 111 -66 58 -36 111 -63 117 -61 7 2 -12 18 -40 36 -29 18 -53 34 -53 35 0 2 27 20 59 40 48 29 69 36 110 36 28 0 51 5 51 10 0 6 -6 10 -14 10 -37 0 -19 22 60 71 104 65 131 85 123 93 -3 3 -27 -8 -53 -24 -25 -17 -48 -30 -49 -30 -2 0 -1 33 1 73 3 53 11 83 28 113 13 22 24 44 24 47 0 16 -17 5 -32 -20 -17 -27 -17 -23 -18 124 0 90 -4 154 -10 158 -6 4 -10 -16 -10 -53 0 -32 -3 -61 -6 -64 -12 -13 -116 67 -135 104 -21 40 -41 52 -32 18 3 -11 2 -20 -2 -20 -4 0 -54 29 -112 65 -101 63 -159 87 -99 42z m161 -107 l30 -20 -95 0 -95 0 30 20 c17 11 46 20 65 20 19 0 49 -9 65 -20z m-106 -62 c17 -10 11 -16 -58 -57 -42 -26 -88 -55 -103 -65 -33 -22 -34 -17 -8 33 37 73 68 101 111 101 22 0 48 -5 58 -12z m196 -11 c21 -18 26 -29 23 -59 l-3 -36 -94 59 -94 59 71 0 c59 0 75 -4 97 -23z m-402 -93 c-38 -70 -56 -70 -33 1 10 31 57 81 67 71 2 -2 -13 -35 -34 -72z m509 31 c10 -11 18 -36 18 -55 l0 -35 -35 60 c-19 33 -35 64 -35 69 0 10 29 -11 52 -39z m-219 18 c18 -9 49 -27 70 -41 l38 -25 -32 -14 c-17 -7 -82 -63 -144 -123 -62 -61 -117 -110 -122 -110 -25 0 -33 29 -33 116 0 109 7 121 104 179 68 40 75 41 119 18z m237 -200 c0 -36 -5 -46 -35 -69 -20 -15 -37 -25 -38 -23 -1 2 -1 60 1 128 l4 124 34 -59 c23 -41 33 -72 34 -101z m-112 95 c15 -15 16 -156 2 -192 -10 -27 -115 -102 -157 -112 -15 -4 -44 6 -89 31 -59 33 -65 39 -48 48 10 5 60 52 111 103 79 81 144 134 164 134 3 0 10 -5 17 -12z m-380 -190 l-3 -60 -39 75 c-35 68 -37 78 -27 109 6 18 23 41 39 50 l27 17 3 -65 c2 -36 2 -92 0 -126z m-33 -54 c20 -37 34 -68 32 -70 -9 -9 -51 32 -63 62 -13 31 -19 74 -10 74 2 0 21 -30 41 -66z m525 22 c0 -21 -9 -42 -25 -60 -41 -45 -48 -29 -13 34 18 33 34 60 35 60 2 0 3 -15 3 -34z m-80 -50 c-18 -31 -42 -63 -53 -71 -27 -19 -86 -19 -111 0 -11 8 -15 15 -10 15 5 0 52 27 104 60 52 32 96 57 98 56 2 -2 -11 -29 -28 -60z m-260 -84 c-83 -4 -114 16 -118 76 l-3 42 92 -58 92 -57 -63 -3z m125 -52 c-16 -11 -46 -20 -65 -20 -19 0 -48 9 -65 20 l-30 20 95 0 95 0 -30 -20z"/>
 </g>

</svg>